<svg width="332" height="357" viewBox="0 0 332 357" fill="none" xmlns="http://www.w3.org/2000/svg">
<g filter="url(#filter0_d_2511_33)">
<path d="M41.0067 114.982V229.896C41.0119 234.934 42.3623 239.882 44.9225 244.244C47.4826 248.606 51.1624 252.228 55.5927 254.747L157.695 312.204C162.129 314.725 167.16 316.053 172.281 316.053C177.401 316.053 182.432 314.725 186.867 312.204L288.969 254.747C293.399 252.228 297.079 248.606 299.639 244.244C302.199 239.882 303.549 234.934 303.555 229.896V114.982C303.549 109.944 302.199 104.996 299.639 100.634C297.079 96.2724 293.399 92.6504 288.969 90.1314L186.867 32.6741C182.432 30.1527 177.401 28.8252 172.281 28.8252C167.16 28.8252 162.129 30.1527 157.695 32.6741L55.5927 90.1314C51.1624 92.6504 47.4826 96.2724 44.9225 100.634C42.3623 104.996 41.0119 109.944 41.0067 114.982Z" fill="url(#paint0_linear_2511_33)"/>
<path d="M41.0067 114.982V229.896C41.0119 234.934 42.3623 239.882 44.9225 244.244C47.4826 248.606 51.1624 252.228 55.5927 254.747L157.695 312.204C162.129 314.725 167.16 316.053 172.281 316.053C177.401 316.053 182.432 314.725 186.867 312.204L288.969 254.747C293.399 252.228 297.079 248.606 299.639 244.244C302.199 239.882 303.549 234.934 303.555 229.896V114.982C303.549 109.944 302.199 104.996 299.639 100.634C297.079 96.2724 293.399 92.6504 288.969 90.1314L186.867 32.6741C182.432 30.1527 177.401 28.8252 172.281 28.8252C167.16 28.8252 162.129 30.1527 157.695 32.6741L55.5927 90.1314C51.1624 92.6504 47.4826 96.2724 44.9225 100.634C42.3623 104.996 41.0119 109.944 41.0067 114.982Z" stroke="url(#paint1_linear_2511_33)" stroke-width="12.3732" stroke-linecap="round" stroke-linejoin="round"/>
</g>
<path d="M152.519 109.889C151.914 108.776 151.039 107.932 149.893 107.359C148.779 106.755 147.459 106.452 145.931 106.452C143.29 106.452 141.173 107.328 139.582 109.078C137.991 110.796 137.195 113.104 137.195 116C137.195 119.087 138.023 121.505 139.678 123.256C141.364 124.974 143.672 125.833 146.599 125.833C148.604 125.833 150.291 125.324 151.659 124.306C153.06 123.287 154.078 121.823 154.715 119.914H144.356V113.899H162.114V121.489C161.509 123.526 160.475 125.42 159.011 127.17C157.579 128.92 155.749 130.336 153.521 131.418C151.293 132.5 148.779 133.041 145.979 133.041C142.669 133.041 139.71 132.325 137.1 130.893C134.522 129.429 132.501 127.409 131.038 124.831C129.605 122.253 128.889 119.309 128.889 116C128.889 112.69 129.605 109.746 131.038 107.169C132.501 104.559 134.522 102.538 137.1 101.106C139.678 99.6421 142.621 98.9102 145.931 98.9102C149.941 98.9102 153.314 99.8808 156.051 101.822C158.82 103.763 160.65 106.452 161.541 109.889H152.519ZM191.744 119.055C191.744 119.819 191.697 120.614 191.601 121.442H173.127C173.255 123.096 173.78 124.369 174.703 125.26C175.657 126.12 176.819 126.549 178.187 126.549C180.224 126.549 181.64 125.69 182.436 123.972H191.124C190.678 125.722 189.867 127.297 188.689 128.697C187.544 130.098 186.096 131.196 184.345 131.991C182.595 132.787 180.638 133.185 178.474 133.185C175.864 133.185 173.541 132.628 171.504 131.514C169.467 130.4 167.876 128.809 166.731 126.74C165.585 124.672 165.012 122.253 165.012 119.484C165.012 116.716 165.569 114.297 166.683 112.229C167.829 110.16 169.42 108.569 171.456 107.455C173.493 106.341 175.832 105.784 178.474 105.784C181.051 105.784 183.343 106.325 185.348 107.407C187.353 108.489 188.912 110.033 190.026 112.038C191.171 114.042 191.744 116.382 191.744 119.055ZM183.39 116.907C183.39 115.506 182.913 114.393 181.958 113.565C181.004 112.738 179.81 112.324 178.378 112.324C177.01 112.324 175.848 112.722 174.893 113.517C173.971 114.313 173.398 115.443 173.175 116.907H183.39ZM210.896 125.881V132.803H206.743C203.784 132.803 201.477 132.087 199.822 130.655C198.167 129.191 197.339 126.82 197.339 123.542V112.945H194.093V106.166H197.339V99.674H205.502V106.166H210.849V112.945H205.502V123.637C205.502 124.433 205.693 125.006 206.075 125.356C206.457 125.706 207.094 125.881 207.985 125.881H210.896ZM93.5905 205.137C91.14 205.137 88.9442 204.739 87.0029 203.943C85.0617 203.148 83.5023 201.97 82.3248 200.411C81.1791 198.852 80.5745 196.974 80.5108 194.778H89.1988C89.3261 196.019 89.7557 196.974 90.4876 197.642C91.2196 198.279 92.1743 198.597 93.3518 198.597C94.5611 198.597 95.5158 198.327 96.216 197.786C96.9161 197.213 97.2662 196.433 97.2662 195.446C97.2662 194.619 96.9797 193.935 96.4069 193.394C95.8659 192.853 95.1817 192.407 94.3543 192.057C93.5587 191.707 92.413 191.309 90.9173 190.864C88.7532 190.196 86.987 189.527 85.6186 188.859C84.2501 188.191 83.0727 187.204 82.0861 185.899C81.0996 184.594 80.6063 182.892 80.6063 180.792C80.6063 177.673 81.736 175.238 83.9956 173.488C86.2551 171.706 89.1988 170.815 92.8267 170.815C96.5183 170.815 99.4938 171.706 101.753 173.488C104.013 175.238 105.222 177.689 105.381 180.839H96.5501C96.4865 179.757 96.0887 178.914 95.3567 178.309C94.6248 177.673 93.686 177.355 92.5403 177.355C91.5538 177.355 90.7582 177.625 90.1535 178.166C89.5488 178.675 89.2465 179.423 89.2465 180.41C89.2465 181.492 89.7557 182.335 90.7741 182.94C91.7924 183.544 93.3836 184.197 95.5477 184.897C97.7117 185.629 99.462 186.329 100.799 186.997C102.167 187.666 103.345 188.636 104.331 189.909C105.318 191.182 105.811 192.821 105.811 194.826C105.811 196.735 105.318 198.47 104.331 200.029C103.376 201.589 101.976 202.83 100.13 203.753C98.2845 204.675 96.1046 205.137 93.5905 205.137ZM125.68 197.881V204.803H121.527C118.568 204.803 116.26 204.087 114.606 202.655C112.951 201.191 112.123 198.82 112.123 195.542V184.945H108.877V178.166H112.123V171.674H120.286V178.166H125.633V184.945H120.286V195.637C120.286 196.433 120.477 197.006 120.859 197.356C121.241 197.706 121.877 197.881 122.768 197.881H125.68ZM128.604 191.437C128.604 188.7 129.113 186.297 130.132 184.229C131.182 182.16 132.598 180.569 134.38 179.455C136.162 178.341 138.151 177.784 140.347 177.784C142.225 177.784 143.864 178.166 145.264 178.93C146.696 179.694 147.794 180.696 148.558 181.937V178.166H156.721V204.803H148.558V201.032C147.762 202.273 146.648 203.275 145.216 204.039C143.816 204.803 142.177 205.185 140.299 205.185C138.135 205.185 136.162 204.628 134.38 203.514C132.598 202.368 131.182 200.761 130.132 198.693C129.113 196.592 128.604 194.174 128.604 191.437ZM148.558 191.484C148.558 189.448 147.985 187.841 146.839 186.663C145.725 185.486 144.357 184.897 142.734 184.897C141.111 184.897 139.727 185.486 138.581 186.663C137.467 187.809 136.91 189.4 136.91 191.437C136.91 193.473 137.467 195.096 138.581 196.306C139.727 197.483 141.111 198.072 142.734 198.072C144.357 198.072 145.725 197.483 146.839 196.306C147.985 195.128 148.558 193.521 148.558 191.484ZM170.789 182.605C171.744 181.142 172.937 179.996 174.369 179.169C175.801 178.309 177.392 177.88 179.143 177.88V186.52H176.899C174.862 186.52 173.335 186.965 172.316 187.856C171.298 188.716 170.789 190.243 170.789 192.439V204.803H162.626V178.166H170.789V182.605ZM197.89 197.881V204.803H193.737C190.778 204.803 188.47 204.087 186.816 202.655C185.161 201.191 184.333 198.82 184.333 195.542V184.945H181.087V178.166H184.333V171.674H192.496V178.166H197.843V184.945H192.496V195.637C192.496 196.433 192.687 197.006 193.069 197.356C193.451 197.706 194.087 197.881 194.978 197.881H197.89ZM227.546 191.055C227.546 191.819 227.499 192.614 227.403 193.442H208.929C209.057 195.096 209.582 196.369 210.505 197.26C211.459 198.12 212.621 198.549 213.989 198.549C216.026 198.549 217.442 197.69 218.238 195.972H226.926C226.48 197.722 225.669 199.297 224.491 200.697C223.346 202.098 221.898 203.196 220.147 203.991C218.397 204.787 216.44 205.185 214.276 205.185C211.666 205.185 209.343 204.628 207.306 203.514C205.269 202.4 203.678 200.809 202.533 198.74C201.387 196.672 200.814 194.253 200.814 191.484C200.814 188.716 201.371 186.297 202.485 184.229C203.631 182.16 205.222 180.569 207.258 179.455C209.295 178.341 211.634 177.784 214.276 177.784C216.853 177.784 219.145 178.325 221.15 179.407C223.155 180.489 224.714 182.033 225.828 184.038C226.973 186.042 227.546 188.382 227.546 191.055ZM219.192 188.907C219.192 187.506 218.715 186.393 217.76 185.565C216.806 184.738 215.612 184.324 214.18 184.324C212.812 184.324 211.65 184.722 210.695 185.517C209.773 186.313 209.2 187.443 208.977 188.907H219.192ZM230.23 191.437C230.23 188.7 230.739 186.297 231.757 184.229C232.807 182.16 234.223 180.569 236.006 179.455C237.788 178.341 239.777 177.784 241.973 177.784C243.723 177.784 245.314 178.15 246.746 178.882C248.21 179.614 249.356 180.601 250.183 181.842V169.478H258.346V204.803H250.183V200.984C249.419 202.257 248.321 203.275 246.889 204.039C245.489 204.803 243.85 205.185 241.973 205.185C239.777 205.185 237.788 204.628 236.006 203.514C234.223 202.368 232.807 200.761 231.757 198.693C230.739 196.592 230.23 194.174 230.23 191.437ZM250.183 191.484C250.183 189.448 249.61 187.841 248.465 186.663C247.351 185.486 245.982 184.897 244.359 184.897C242.736 184.897 241.352 185.486 240.206 186.663C239.093 187.809 238.536 189.4 238.536 191.437C238.536 193.473 239.093 195.096 240.206 196.306C241.352 197.483 242.736 198.072 244.359 198.072C245.982 198.072 247.351 197.483 248.465 196.306C249.61 195.128 250.183 193.521 250.183 191.484Z" fill="#1F4790"/>
<defs>
<filter id="filter0_d_2511_33" x="0.794088" y="0.98562" width="330.601" height="355.281" filterUnits="userSpaceOnUse" color-interpolation-filters="sRGB">
<feFlood flood-opacity="0" result="BackgroundImageFix"/>
<feColorMatrix in="SourceAlpha" type="matrix" values="0 0 0 0 0 0 0 0 0 0 0 0 0 0 0 0 0 0 127 0" result="hardAlpha"/>
<feOffset dx="-6.18659" dy="6.18659"/>
<feGaussianBlur stdDeviation="13.9198"/>
<feComposite in2="hardAlpha" operator="out"/>
<feColorMatrix type="matrix" values="0 0 0 0 0 0 0 0 0 0 0 0 0 0 0 0 0 0 0.22 0"/>
<feBlend mode="normal" in2="BackgroundImageFix" result="effect1_dropShadow_2511_33"/>
<feBlend mode="normal" in="SourceGraphic" in2="effect1_dropShadow_2511_33" result="shape"/>
</filter>
<linearGradient id="paint0_linear_2511_33" x1="261.51" y1="139.593" x2="85.7056" y2="259.759" gradientUnits="userSpaceOnUse">
<stop stop-color="#F0CFE5"/>
<stop offset="0.86" stop-color="white"/>
</linearGradient>
<linearGradient id="paint1_linear_2511_33" x1="92.514" y1="264.544" x2="292.136" y2="133.502" gradientUnits="userSpaceOnUse">
<stop stop-color="#F0CFE5"/>
<stop offset="0.705" stop-color="#ADC8FB"/>
</linearGradient>
</defs>
</svg>
