<svg width="120" height="51" viewBox="0 0 120 51" fill="none" xmlns="http://www.w3.org/2000/svg">
<g filter="url(#filter0_d_2469_26)">
<line y1="-0.95472" x2="41.3328" y2="-0.95472" transform="matrix(0.900183 0.435511 -0.518273 0.855215 7.6875 15.9883)" stroke="url(#paint0_linear_2469_26)" stroke-width="1.90944"/>
</g>
<g filter="url(#filter1_d_2469_26)">
<line x1="45.8063" y1="15.1701" x2="7.61752" y2="33.8557" stroke="url(#paint1_linear_2469_26)" stroke-width="1.90944"/>
</g>
<g filter="url(#filter2_d_2469_26)">
<path d="M22.9634 30.8633H28.8847C29.1443 30.8631 29.3993 30.8026 29.624 30.688C29.8488 30.5733 30.0354 30.4085 30.1652 30.2101L33.1259 25.6376C33.2558 25.439 33.3242 25.2137 33.3242 24.9844C33.3242 24.7551 33.2558 24.5298 33.1259 24.3312L30.1652 19.7587C30.0354 19.5603 29.8488 19.3955 29.624 19.2808C29.3993 19.1662 29.1443 19.1057 28.8847 19.1055H22.9634C22.7038 19.1057 22.4489 19.1662 22.2241 19.2808C21.9994 19.3955 21.8127 19.5603 21.6829 19.7587L18.7223 24.3312C18.5923 24.5298 18.5239 24.7551 18.5239 24.9844C18.5239 25.2137 18.5923 25.439 18.7223 25.6376L21.6829 30.2101C21.8127 30.4085 21.9994 30.5733 22.2241 30.688C22.4489 30.8026 22.7038 30.8631 22.9634 30.8633Z" fill="url(#paint2_linear_2469_26)"/>
<path d="M22.9634 30.8633H28.8847C29.1443 30.8631 29.3993 30.8026 29.624 30.688C29.8488 30.5733 30.0354 30.4085 30.1652 30.2101L33.1259 25.6376C33.2558 25.439 33.3242 25.2137 33.3242 24.9844C33.3242 24.7551 33.2558 24.5298 33.1259 24.3312L30.1652 19.7587C30.0354 19.5603 29.8488 19.3955 29.624 19.2808C29.3993 19.1662 29.1443 19.1057 28.8847 19.1055H22.9634C22.7038 19.1057 22.4489 19.1662 22.2241 19.2808C21.9994 19.3955 21.8127 19.5603 21.6829 19.7587L18.7223 24.3312C18.5923 24.5298 18.5239 24.7551 18.5239 24.9844C18.5239 25.2137 18.5923 25.439 18.7223 25.6376L21.6829 30.2101C21.8127 30.4085 21.9994 30.5733 22.2241 30.688C22.4489 30.8026 22.7038 30.8631 22.9634 30.8633Z" stroke="url(#paint3_linear_2469_26)" stroke-width="1.90944" stroke-linecap="round" stroke-linejoin="round"/>
</g>
<g clip-path="url(#clip0_2469_26)">
<g filter="url(#filter3_d_2469_26)">
<path d="M45.6193 33.7195V16.8527C45.6185 16.1133 45.4196 15.387 45.0426 14.7469C44.6656 14.1067 44.1236 13.575 43.4712 13.2053L28.4343 4.77196C27.7812 4.40187 27.0404 4.20703 26.2862 4.20703C25.5321 4.20703 24.7912 4.40187 24.1381 4.77196L9.10124 13.2053C8.44878 13.575 7.90685 14.1067 7.52981 14.7469C7.15278 15.387 6.9539 16.1133 6.95312 16.8527V33.7195C6.9539 34.4589 7.15278 35.1852 7.52981 35.8254C7.90685 36.4655 8.44878 36.9972 9.10124 37.3669L24.1381 45.8003C24.7912 46.1703 25.5321 46.3652 26.2862 46.3652C27.0404 46.3652 27.7812 46.1703 28.4343 45.8003L43.4712 37.3669C44.1236 36.9972 44.6656 36.4655 45.0426 35.8254C45.4196 35.1852 45.6185 34.4589 45.6193 33.7195Z" stroke="url(#paint4_linear_2469_26)" stroke-width="1.90944" stroke-linecap="round" stroke-linejoin="round" shape-rendering="crispEdges"/>
</g>
</g>
<rect x="0.512586" y="-0.00889827" width="51.5453" height="50.5906" stroke="url(#paint5_linear_2469_26)" stroke-width="0.0095472"/>
<g filter="url(#filter4_d_2469_26)">
<path d="M63.5361 33.3926H60.271L54.81 25.1247V33.3926H51.5448V19.9883H54.81L60.271 28.2944V19.9883H63.5361V33.3926ZM69.1681 22.6042V25.3156H73.5407V27.8361H69.1681V30.7766H74.1135V33.3926H65.9029V19.9883H74.1135V22.6042H69.1681ZM84.4439 33.3926L81.7134 29.2873L79.3075 33.3926H75.6032L79.8994 26.5759L75.5077 19.9883H79.3075L81.9998 24.0363L84.3675 19.9883H88.0718L83.8138 26.7477L88.2437 33.3926H84.4439ZM93.0907 19.9883V28.008C93.0907 28.8099 93.288 29.4273 93.6826 29.8601C94.0772 30.2929 94.6564 30.5093 95.4202 30.5093C96.184 30.5093 96.7695 30.2929 97.1769 29.8601C97.5842 29.4273 97.7879 28.8099 97.7879 28.008V19.9883H101.053V27.9889C101.053 29.1854 100.798 30.1974 100.289 31.0249C99.7801 31.8523 99.0927 32.476 98.2271 32.8961C97.3742 33.3162 96.4195 33.5262 95.3629 33.5262C94.3064 33.5262 93.358 33.3226 92.5178 32.9152C91.6904 32.4951 91.0348 31.8714 90.5511 31.044C90.0674 30.2038 89.8255 29.1854 89.8255 27.9889V19.9883H93.0907ZM108.196 33.5262C107.216 33.5262 106.337 33.3671 105.561 33.0489C104.784 32.7306 104.161 32.2596 103.69 31.6359C103.231 31.0121 102.989 30.2611 102.964 29.3828H106.439C106.49 29.8792 106.662 30.2611 106.955 30.5284C107.247 30.783 107.629 30.9103 108.1 30.9103C108.584 30.9103 108.966 30.8021 109.246 30.5857C109.526 30.3566 109.666 30.0447 109.666 29.6501C109.666 29.3191 109.552 29.0454 109.322 28.829C109.106 28.6126 108.832 28.4344 108.501 28.2944C108.183 28.1543 107.725 27.9952 107.127 27.817C106.261 27.5497 105.554 27.2824 105.007 27.015C104.46 26.7477 103.989 26.3531 103.594 25.8312C103.199 25.3093 103.002 24.6282 103.002 23.7881C103.002 22.5406 103.454 21.5668 104.358 20.8667C105.262 20.1538 106.439 19.7974 107.89 19.7974C109.367 19.7974 110.557 20.1538 111.461 20.8667C112.365 21.5668 112.849 22.547 112.912 23.8072H109.38C109.354 23.3744 109.195 23.037 108.902 22.7952C108.61 22.5406 108.234 22.4133 107.776 22.4133C107.381 22.4133 107.063 22.5215 106.821 22.7379C106.579 22.9416 106.458 23.2407 106.458 23.6353C106.458 24.0681 106.662 24.4055 107.069 24.6473C107.477 24.8892 108.113 25.1502 108.979 25.4302C109.844 25.723 110.544 26.003 111.079 26.2704C111.626 26.5377 112.097 26.9259 112.492 27.4351C112.887 27.9443 113.084 28.5999 113.084 29.4018C113.084 30.1656 112.887 30.8594 112.492 31.4831C112.11 32.1069 111.55 32.6033 110.812 32.9725C110.073 33.3417 109.201 33.5262 108.196 33.5262Z" fill="url(#paint6_angular_2469_26)"/>
</g>
<defs>
<filter id="filter0_d_2469_26" x="4.82334" y="11.4913" width="45.835" height="27.2706" filterUnits="userSpaceOnUse" color-interpolation-filters="sRGB">
<feFlood flood-opacity="0" result="BackgroundImageFix"/>
<feColorMatrix in="SourceAlpha" type="matrix" values="0 0 0 0 0 0 0 0 0 0 0 0 0 0 0 0 0 0 127 0" result="hardAlpha"/>
<feOffset dx="0.95472" dy="0.95472"/>
<feGaussianBlur stdDeviation="1.90944"/>
<feComposite in2="hardAlpha" operator="out"/>
<feColorMatrix type="matrix" values="0 0 0 0 0 0 0 0 0 0 0 0 0 0 0 0 0 0 0.25 0"/>
<feBlend mode="normal" in2="BackgroundImageFix" result="effect1_dropShadow_2469_26"/>
<feBlend mode="normal" in="SourceGraphic" in2="effect1_dropShadow_2469_26" result="shape"/>
</filter>
<filter id="filter1_d_2469_26" x="0.514226" y="11.4483" width="46.6671" height="28.0382" filterUnits="userSpaceOnUse" color-interpolation-filters="sRGB">
<feFlood flood-opacity="0" result="BackgroundImageFix"/>
<feColorMatrix in="SourceAlpha" type="matrix" values="0 0 0 0 0 0 0 0 0 0 0 0 0 0 0 0 0 0 127 0" result="hardAlpha"/>
<feOffset dx="-2.86416" dy="0.95472"/>
<feGaussianBlur stdDeviation="1.90944"/>
<feComposite in2="hardAlpha" operator="out"/>
<feColorMatrix type="matrix" values="0 0 0 0 0 0 0 0 0 0 0 0 0 0 0 0 0 0 0.25 0"/>
<feBlend mode="normal" in2="BackgroundImageFix" result="effect1_dropShadow_2469_26"/>
<feBlend mode="normal" in="SourceGraphic" in2="effect1_dropShadow_2469_26" result="shape"/>
</filter>
<filter id="filter2_d_2469_26" x="12.3174" y="14.8089" width="25.3034" height="22.2604" filterUnits="userSpaceOnUse" color-interpolation-filters="sRGB">
<feFlood flood-opacity="0" result="BackgroundImageFix"/>
<feColorMatrix in="SourceAlpha" type="matrix" values="0 0 0 0 0 0 0 0 0 0 0 0 0 0 0 0 0 0 127 0" result="hardAlpha"/>
<feOffset dx="-0.95472" dy="0.95472"/>
<feGaussianBlur stdDeviation="2.14812"/>
<feComposite in2="hardAlpha" operator="out"/>
<feColorMatrix type="matrix" values="0 0 0 0 0 0 0 0 0 0 0 0 0 0 0 0 0 0 0.22 0"/>
<feBlend mode="normal" in2="BackgroundImageFix" result="effect1_dropShadow_2469_26"/>
<feBlend mode="normal" in="SourceGraphic" in2="effect1_dropShadow_2469_26" result="shape"/>
</filter>
<filter id="filter3_d_2469_26" x="2.37011" y="0.578737" width="47.832" height="51.3242" filterUnits="userSpaceOnUse" color-interpolation-filters="sRGB">
<feFlood flood-opacity="0" result="BackgroundImageFix"/>
<feColorMatrix in="SourceAlpha" type="matrix" values="0 0 0 0 0 0 0 0 0 0 0 0 0 0 0 0 0 0 127 0" result="hardAlpha"/>
<feOffset dy="0.95472"/>
<feGaussianBlur stdDeviation="1.81397"/>
<feComposite in2="hardAlpha" operator="out"/>
<feColorMatrix type="matrix" values="0 0 0 0 0 0 0 0 0 0 0 0 0 0 0 0 0 0 0.25 0"/>
<feBlend mode="normal" in2="BackgroundImageFix" result="effect1_dropShadow_2469_26"/>
<feBlend mode="normal" in="SourceGraphic" in2="effect1_dropShadow_2469_26" result="shape"/>
</filter>
<filter id="filter4_d_2469_26" x="46.4849" y="19.5105" width="69.7497" height="21.9391" filterUnits="userSpaceOnUse" color-interpolation-filters="sRGB">
<feFlood flood-opacity="0" result="BackgroundImageFix"/>
<feColorMatrix in="SourceAlpha" type="matrix" values="0 0 0 0 0 0 0 0 0 0 0 0 0 0 0 0 0 0 127 0" result="hardAlpha"/>
<feOffset dx="-0.95472" dy="3.81888"/>
<feGaussianBlur stdDeviation="2.05265"/>
<feComposite in2="hardAlpha" operator="out"/>
<feColorMatrix type="matrix" values="0 0 0 0 0 0 0 0 0 0 0 0 0 0 0 0 0 0 0.25 0"/>
<feBlend mode="normal" in2="BackgroundImageFix" result="effect1_dropShadow_2469_26"/>
<feBlend mode="normal" in="SourceGraphic" in2="effect1_dropShadow_2469_26" result="shape"/>
</filter>
<linearGradient id="paint0_linear_2469_26" x1="-1.1718" y1="-0.66264" x2="41.3357" y2="0.381052" gradientUnits="userSpaceOnUse">
<stop offset="0.545" stop-color="#F0CFE5"/>
<stop offset="0.745" stop-color="#ADC8FB"/>
</linearGradient>
<linearGradient id="paint1_linear_2469_26" x1="46.7606" y1="14.378" x2="7.00252" y2="32.6022" gradientUnits="userSpaceOnUse">
<stop offset="0.545" stop-color="#F0CFE5"/>
<stop offset="0.745" stop-color="#ADC8FB"/>
</linearGradient>
<linearGradient id="paint2_linear_2469_26" x1="24.2316" y1="20.9884" x2="29.3038" y2="29.5267" gradientUnits="userSpaceOnUse">
<stop stop-color="#F0CFE5"/>
<stop offset="0.86" stop-color="white"/>
</linearGradient>
<linearGradient id="paint3_linear_2469_26" x1="30.6701" y1="28.5566" x2="25.164" y2="18.9058" gradientUnits="userSpaceOnUse">
<stop stop-color="#F0CFE5"/>
<stop offset="0.705" stop-color="#ADC8FB"/>
</linearGradient>
<linearGradient id="paint4_linear_2469_26" x1="26.2862" y1="4.20703" x2="26.2862" y2="46.3652" gradientUnits="userSpaceOnUse">
<stop offset="0.03" stop-color="#F0CFE5"/>
<stop offset="0.44" stop-color="#F09FD9"/>
<stop offset="0.82" stop-color="#ADC8FB"/>
</linearGradient>
<linearGradient id="paint5_linear_2469_26" x1="26.2853" y1="-0.0136719" x2="26.2853" y2="48.5346" gradientUnits="userSpaceOnUse">
<stop stop-color="#1F4790"/>
<stop offset="1" stop-color="#C880E9"/>
</linearGradient>
<radialGradient id="paint6_angular_2469_26" cx="0" cy="0" r="1" gradientUnits="userSpaceOnUse" gradientTransform="translate(82.2499 29.137) rotate(126.223) scale(0.558227)">
<stop offset="0.425" stop-color="#FFFEFF"/>
<stop offset="1" stop-color="#EFC2E0"/>
</radialGradient>
<clipPath id="clip0_2469_26">
<rect x="0.507812" y="-0.0136719" width="51.5549" height="50.6002" fill="white"/>
</clipPath>
</defs>
</svg>
